<svg xmlns="http://www.w3.org/2000/svg" width="113" height="19.55" viewBox="0 0 113 19.55"><path d="M50.765,171.17h-.954v.954h.954v-.954Z" transform="translate(-46.952 -165.475)" fill="#004d68"/><rect width="0.953" height="0.953" transform="translate(4.767 13.322)" fill="#004d68"/><rect width="0.954" height="0.954" transform="translate(1.907 7.602)" fill="#004d68"/><path d="M44.333,176.676h-.027v.954h1.907v-.954h-1.88Z" transform="translate(-44.306 -168.121)" fill="#004d68"/><path d="M73.719,183.279l8.581,1.9v-4.1l-8.582-2.575Z" transform="translate(-58.439 -169.002)" fill="#00adef"/><path d="M97.208,191.894l-1.36-.789,1.36,1.883,1.36-1.883Z" transform="translate(-69.072 -175.054)" fill="#00adef"/><path d="M98.568,188.339l-1.36-2.188-1.361,2.188,1.36.791Z" transform="translate(-69.072 -172.673)" fill="#00adef"/><path d="M87.041,173.906v-4.213l1.9-.949-15.221-8.535v8.554l9.534,2.862,2.835-1.454v3.763l.485-.78Z" transform="translate(-58.439 -160.207)" fill="#00adef"/><g transform="translate(2.86)"><path d="M64.877,183.241V178.51L56.3,181.083v.288h.926v.953h.953v.954h-.953v-.954H56.3v.954h-.98v1.907h.954v-.954h.953v.746l1.907-.424v-1.276h.954v1.063l4.792-1.065.01,0v-.035Z" transform="translate(-52.458 -169.002)" fill="#004d68"/><path d="M62.231,168.727v-8.52l-6.7,3.757v.985h-.954v.953h-.953v-.953h-.953v2.86h-.954v-.953h-.953v1.907h1.907v.953H50.765v-.953h-.953v2.86h.953v-.954h1.907v.94l.025.012,2.835-.847v-1.06h.954v.769l5.745-1.723.01,0v-.035Zm-6.7.036h-.954v.953h-.953v-.953h.953v-.953h.954Zm1.907-1.907h-.953V165.9h.953Z" transform="translate(-49.812 -160.207)" fill="#004d68"/></g><g transform="translate(36.01 2.359)"><path d="M119.4,167a3.962,3.962,0,0,1,1.2.808A3.785,3.785,0,0,1,121.42,169a3.648,3.648,0,0,1,.3,1.478,3.808,3.808,0,0,1-.266,1.435,3.641,3.641,0,0,1-.765,1.178,3.449,3.449,0,0,1,.765,1.16,3.81,3.81,0,0,1,.266,1.436,3.65,3.65,0,0,1-.3,1.478,3.888,3.888,0,0,1-.816,1.2,4.011,4.011,0,0,1-1.2.825,3.552,3.552,0,0,1-1.478.31h-4.3V166.7h4.3A3.647,3.647,0,0,1,119.4,167Zm-3.421,4.925h1.943a1.439,1.439,0,0,0,1.444-1.444,1.336,1.336,0,0,0-.422-1.006,1.421,1.421,0,0,0-1.022-.4h-1.943Zm2.965,4.788a1.393,1.393,0,0,0,.422-1.023,1.336,1.336,0,0,0-.422-1.006,1.424,1.424,0,0,0-1.022-.4h-1.943v2.854h1.943A1.391,1.391,0,0,0,118.945,176.715Z" transform="translate(-113.624 -165.686)" fill="#00adef"/><path d="M134.8,169.511a1.4,1.4,0,0,0-.4,1.006v5.192a1.374,1.374,0,0,0,.4,1,1.354,1.354,0,0,0,.954.43h3.352l.482,2.372h-3.73a3.711,3.711,0,0,1-1.487-.3,3.975,3.975,0,0,1-1.22-.816,3.815,3.815,0,0,1-.825-1.2,3.646,3.646,0,0,1-.3-1.478v-5.157a3.772,3.772,0,0,1,.3-1.5,3.939,3.939,0,0,1,.816-1.229,3.81,3.81,0,0,1,1.2-.825,3.647,3.647,0,0,1,1.478-.3h3.765l-.482,2.372h-3.352A1.339,1.339,0,0,0,134.8,169.511Z" transform="translate(-122.467 -165.686)" fill="#00adef"/><path d="M151.758,178.269a3.948,3.948,0,0,1-1.229-.816,3.789,3.789,0,0,1-.825-1.212,3.706,3.706,0,0,1-.3-1.487V172.4a3.711,3.711,0,0,1,.3-1.487,3.821,3.821,0,0,1,2.029-2.028,3.71,3.71,0,0,1,1.487-.3,3.869,3.869,0,0,1,.748.069,3.791,3.791,0,0,1,.7.206v-4.109h2.373v13.821h-3.782A3.769,3.769,0,0,1,151.758,178.269Zm.154-2.948a1.5,1.5,0,0,0,.318.447,1.511,1.511,0,0,0,.464.3,1.426,1.426,0,0,0,.559.112h1.409V172.4a1.453,1.453,0,0,0-.421-1.023,1.462,1.462,0,0,0-.456-.309,1.409,1.409,0,0,0-.568-.112,1.366,1.366,0,0,0-1.014.421,1.409,1.409,0,0,0-.412,1.023v2.355A1.337,1.337,0,0,0,151.912,175.32Z" transform="translate(-130.816 -164.748)" fill="#004d68"/><path d="M168.151,169.109a1.453,1.453,0,1,1,1.014.412A1.379,1.379,0,0,1,168.151,169.109Zm2.217,1.358v9.025h-2.441v-9.025Z" transform="translate(-139.627 -165.671)" fill="#004d68"/><path d="M179.1,185.453h-2.39v-9.558a3.706,3.706,0,0,1,.3-1.487,3.962,3.962,0,0,1,.816-1.221,3.789,3.789,0,0,1,1.212-.825,3.825,3.825,0,0,1,2.974,0,3.789,3.789,0,0,1,1.212.825,3.961,3.961,0,0,1,.816,1.221,3.707,3.707,0,0,1,.3,1.487v2.39a3.8,3.8,0,0,1-.292,1.487,3.715,3.715,0,0,1-2.02,2.02,3.8,3.8,0,0,1-1.487.292H179.1Zm.412-10.615a1.35,1.35,0,0,0-.412,1.005v3.851h1.444a1.4,1.4,0,0,0,1.014-.4,1.351,1.351,0,0,0,.412-1.006v-2.39a1.419,1.419,0,0,0-.421-1.031,1.377,1.377,0,0,0-1.023-.43A1.392,1.392,0,0,0,179.509,174.838Z" transform="translate(-143.936 -168.262)" fill="#004d68"/><path d="M196.919,178.569h-2.372V164.748h2.372Z" transform="translate(-152.509 -164.748)" fill="#004d68"/><path d="M207.727,172.371a3.976,3.976,0,0,1,1.211.825,3.848,3.848,0,0,1,.817,1.212,3.665,3.665,0,0,1,.3,1.47v2.39a3.707,3.707,0,0,1-.3,1.487,3.817,3.817,0,0,1-2.028,2.029,3.827,3.827,0,0,1-2.975,0,3.815,3.815,0,0,1-2.029-2.029,3.706,3.706,0,0,1-.3-1.487v-2.39a3.664,3.664,0,0,1,.3-1.47,3.865,3.865,0,0,1,.817-1.212,3.985,3.985,0,0,1,1.212-.825,3.721,3.721,0,0,1,2.975,0Zm-.482,2.544a1.354,1.354,0,0,0-2.011,0,1.432,1.432,0,0,0-.4,1.014v2.321a1.453,1.453,0,0,0,.4,1.032,1.392,1.392,0,0,0,2.011,0,1.453,1.453,0,0,0,.4-1.032v-2.321A1.432,1.432,0,0,0,207.246,174.915Z" transform="translate(-156.294 -168.262)" fill="#004d68"/><path d="M230.3,172.419a3.674,3.674,0,0,1,1.212.817,3.967,3.967,0,0,1,.817,1.22,3.711,3.711,0,0,1,.3,1.487v6.171h-2.372V175.96a1.432,1.432,0,0,0-.4-1.014,1.38,1.38,0,0,0-1.006-.447,1.422,1.422,0,0,0-1.031.421,1.379,1.379,0,0,0-.43,1.023v6.171H225.01V175.96a1.43,1.43,0,0,0-.4-1.014,1.38,1.38,0,0,0-1.006-.447,1.438,1.438,0,0,0-1.444,1.444v6.171h-2.389v-6.137a3.86,3.86,0,0,1,.292-1.5,3.774,3.774,0,0,1,2.019-2.054,3.711,3.711,0,0,1,1.487-.3,3.477,3.477,0,0,1,1.444.266,3.868,3.868,0,0,1,1.186.782,3.744,3.744,0,0,1,1.178-.773,3.692,3.692,0,0,1,1.435-.275A3.81,3.81,0,0,1,230.3,172.419Z" transform="translate(-164.628 -168.293)" fill="#004d68"/><path d="M252.466,172.429a3.846,3.846,0,0,1,2.02,2.028,3.711,3.711,0,0,1,.3,1.487v6.171h-3.764a3.774,3.774,0,0,1-1.5-.3A3.948,3.948,0,0,1,248.3,181a3.788,3.788,0,0,1-.825-1.212,3.707,3.707,0,0,1-.3-1.487v-2.355a3.711,3.711,0,0,1,.3-1.487,3.823,3.823,0,0,1,2.028-2.028,3.711,3.711,0,0,1,1.487-.3A3.647,3.647,0,0,1,252.466,172.429Zm-.481,2.492a1.432,1.432,0,0,0-2.029,0,1.409,1.409,0,0,0-.412,1.023V178.3a1.339,1.339,0,0,0,.438,1.014,1.468,1.468,0,0,0,1.041.412H252.4v-3.782A1.409,1.409,0,0,0,251.985,174.921Z" transform="translate(-177.796 -168.294)" fill="#004d68"/></g></svg>