<svg xmlns="http://www.w3.org/2000/svg" width="51.908" height="50" viewBox="0 0 51.908 50"><g transform="translate(5 5)"><rect width="40" height="40" transform="translate(0 0)" fill="none"/><path d="M90.859,194.6c0,2.981-6.578,5.4-14.693,5.4s-14.693-2.416-14.693-5.4v-21.85c0,2.981,6.578,5.4,14.693,5.4s14.693-2.416,14.693-5.4Z" transform="translate(-55.971 -163.678)" fill="none" stroke="#0188d9" stroke-miterlimit="10" stroke-width="2.5"/><path d="M90.859,181.868c0,2.98-6.578,5.4-14.693,5.4s-14.693-2.417-14.693-5.4" transform="translate(-55.971 -165.509)" fill="none" stroke="#0188d9" stroke-miterlimit="10" stroke-width="2.5"/><path d="M90.859,190.982c0,2.98-6.578,5.4-14.693,5.4s-14.693-2.417-14.693-5.4" transform="translate(-55.971 -167.34)" fill="none" stroke="#0188d9" stroke-miterlimit="10" stroke-width="2.5"/><path d="M80.913,186.036l5.041,5.041,13.052-13.051" transform="translate(-59.876 -164.737)" fill="none" stroke="#fff" stroke-linecap="round" stroke-linejoin="round" stroke-width="11"/><path d="M80.913,186.036l5.041,5.041,13.052-13.051" transform="translate(-59.876 -164.737)" fill="none" stroke="#0188d9" stroke-miterlimit="10" stroke-width="2.5"/><ellipse cx="14.693" cy="5.397" rx="14.693" ry="5.397" transform="translate(5.502 3.678)" fill="none" stroke="#0188d9" stroke-miterlimit="10" stroke-width="2.5"/></g><rect width="50" height="50" fill="none"/></svg>