<svg xmlns="http://www.w3.org/2000/svg" width="40" height="40" viewBox="0 0 40 40"><rect width="40" height="40" fill="none"/><g transform="translate(0 9.6)"><path d="M1365.373,278.915a7.555,7.555,0,0,1-5.379-2.223l-3.842-3.842,4.61-4.61,3.842,3.842a1.1,1.1,0,0,0,1.537,0l13.47-13.47,4.61,4.61-13.47,13.47A7.554,7.554,0,0,1,1365.373,278.915Z" transform="translate(-1344.222 -258.612)" fill="#005e7a"/><path d="M1292.9,283.271a7.554,7.554,0,0,1-5.379-2.223l-5.855-5.855,4.61-4.61,5.855,5.855a1.1,1.1,0,0,0,1.537,0l13.47-13.47,4.61,4.61-13.47,13.47A7.553,7.553,0,0,1,1292.9,283.271Z" transform="translate(-1281.663 -262.27)" fill="#00adef"/></g></svg>