<svg xmlns="http://www.w3.org/2000/svg" width="190.023" height="56" viewBox="0 0 190.023 56"><g transform="translate(0)"><path d="M141.569,110.09l-.1.076A57.16,57.16,0,0,1,117.9,120.995c-13.925,3.043-26.9,1.231-33.848-4.732a14.337,14.337,0,0,1-5.207-9.968C78,96.169,85.595,85.7,99.159,78.283l.133-.074-.156-.384-.13.053C83.07,84.29,71.884,96.247,72.739,107.621A17.174,17.174,0,0,0,78.75,119.5c7.4,6.441,20.5,8.442,35.047,5.339a57.243,57.243,0,0,0,27.941-14.3l.13-.133Z" transform="translate(-72.693 -70.269)" fill="#003b7c"/><path d="M144.668,84.878c-2.77-6.17-8.846-10.37-17.109-11.808-13.354-2.343-29.382,3.4-37.42,12.71l-.1.12.25.345.126-.1c5.337-4.446,13.237-7.821,21.131-9.032,11.727-1.791,21.566,1.155,26.31,7.881,4.616,6.531,3.3,19.137-2.75,26.435l-.113.139.3.354.123-.107C144.637,103.039,149.072,94.728,144.668,84.878Z" transform="translate(-65.213 -72.546)" fill="#003b7c"/><path d="M98.486,97.445H89.645l-.948,5.075h9.885l-.784,4.161H82.966l4.159-22.069h14.207l-.819,4.161H91.282l-.85,4.516h8.84Z" transform="translate(-68.262 -67.342)" fill="#003b7c"/><path d="M101.719,88.8H96.3l.819-4.191h18.769a6.21,6.21,0,0,0-3.057,1.856,4.67,4.67,0,0,0-1.268,2.334H106.63l-3.339,17.879H98.38Z" transform="translate(-62.51 -67.342)" fill="#003b7c"/><path d="M107.615,101.4a11.936,11.936,0,0,0,5.926,1.6c1.8,0,3.6-.754,3.6-2.489,0-1.178-1.018-1.964-3.243-2.947-2.555-1.111-5.2-2.847-5.2-6.022,0-4.554,4.222-7.2,9.165-7.2a12.317,12.317,0,0,1,5.861,1.209l-1.6,4.058a10.127,10.127,0,0,0-4.68-1.079c-2.357,0-3.5,1.079-3.5,2.128,0,1.378,1.669,2.163,3.568,3.047,2.979,1.307,4.942,3.073,4.942,5.989,0,5.04-4.42,7.5-9.557,7.5a12.9,12.9,0,0,1-7.042-1.829Z" transform="translate(-58.394 -67.46)" fill="#003b7c"/><g transform="translate(73.115 39.357)"><path d="M128.945,105.217a3.037,3.037,0,1,1,.887-2.15A2.918,2.918,0,0,1,128.945,105.217Zm-3.99-3.995A2.617,2.617,0,0,0,126.8,105.7a2.5,2.5,0,0,0,1.846-.767,2.635,2.635,0,0,0,0-3.706,2.6,2.6,0,0,0-3.687,0Zm1.785.169a2.639,2.639,0,0,1,.909.12.83.83,0,0,1,.515.846.719.719,0,0,1-.325.656,1.284,1.284,0,0,1-.481.162.813.813,0,0,1,.571.323.926.926,0,0,1,.182.52v.243c0,.076,0,.16.009.245a.588.588,0,0,0,.027.177l.021.039h-.55l-.009-.031-.007-.039-.011-.106v-.266a.816.816,0,0,0-.315-.76,1.416,1.416,0,0,0-.653-.1h-.462v1.307h-.585v-3.331Zm.634.528a1.505,1.505,0,0,0-.711-.126h-.5V103h.53a1.63,1.63,0,0,0,.558-.076.6.6,0,0,0,.125-1.006Z" transform="translate(-123.775 -100.043)" fill="#003b7c"/></g><g transform="translate(93.717 14.964)"><path d="M145.29,87.2h-7.121l.766-3.906h18.8l-.766,3.906h-7.2l-4.134,21.9h-4.48Z" transform="translate(-138.169 -82.875)" fill="#003b7c"/><path d="M160.46,109.646c-6.7,0-10.147-4.9-10.147-10.643,0-4.593,1.723-9.418,4.825-12.4a13.083,13.083,0,0,1,9.073-3.6c6.853,0,10.107,4.824,10.107,10.68,0,4.595-1.645,9.342-4.632,12.291a12.833,12.833,0,0,1-9.189,3.674Zm.65-3.751a7.023,7.023,0,0,0,5.015-2.181c2.221-2.223,3.484-6.624,3.484-9.879,0-3.408-1.187-7.082-5.934-7.082a7.2,7.2,0,0,0-5.13,2.22c-2.22,2.259-3.521,6.471-3.521,9.8,0,3.9,1.722,7.121,6.049,7.121Z" transform="translate(-132.931 -83.001)" fill="#003b7c"/><path d="M183.6,97.614h-9.265l-1.456,7.695h10.414l-.727,3.792H167.674l4.9-25.807h14.317l-.727,3.792h-9.839l-1.3,6.776h9.3Z" transform="translate(-125.443 -82.875)" fill="#003b7c"/><path d="M189.829,83.294l-4.9,25.807h-4.441l4.9-25.807Z" transform="translate(-119.917 -82.875)" fill="#003b7c"/><path d="M205.382,108.45a17.4,17.4,0,0,1-6.739,1.148c-6.7,0-10.988-4.1-10.988-10.8a15.229,15.229,0,0,1,15.66-15.775,11.976,11.976,0,0,1,5.628,1.149l-1.3,3.6a11.118,11.118,0,0,0-4.862-.919,9.808,9.808,0,0,0-6.547,2.412,11.786,11.786,0,0,0-3.751,8.959c0,4.364,2.22,7.582,7.313,7.582a13.2,13.2,0,0,0,5.169-.959Z" transform="translate(-116.825 -82.99)" fill="#003b7c"/></g><g transform="translate(183.924 34.983)"><path d="M206.4,102.193a3.048,3.048,0,0,1-4.317,0,3.058,3.058,0,0,1,.009-4.317,3.049,3.049,0,0,1,5.2,2.153A2.958,2.958,0,0,1,206.4,102.193Zm-4.015-4.018a2.619,2.619,0,1,0,1.855-.771A2.534,2.534,0,0,0,202.382,98.175Zm1.8.17a2.591,2.591,0,0,1,.915.12.835.835,0,0,1,.521.85.73.73,0,0,1-.328.66,1.284,1.284,0,0,1-.484.162.808.808,0,0,1,.573.328.908.908,0,0,1,.182.52v.243c0,.077,0,.162.009.249a.53.53,0,0,0,.031.176l.02.042h-.555l-.007-.034a.148.148,0,0,1-.006-.039l-.014-.106v-.266a.821.821,0,0,0-.316-.766,1.41,1.41,0,0,0-.657-.106H203.6v1.317h-.59V98.345Zm.638.528a1.547,1.547,0,0,0-.717-.126h-.5v1.214h.535a1.605,1.605,0,0,0,.563-.076.6.6,0,0,0,.123-1.012Z" transform="translate(-201.193 -96.987)" fill="#003b7c"/></g></g></svg>