<svg xmlns="http://www.w3.org/2000/svg" fill="none" viewBox="0 0 284 76" role="button" tabindex="0" color="navy" width="150px" class="ets-logo"><g fill="currentColor"><path d="M90.55 54.147c-9.54 7.542-19.082 12.184-31.056 14.89-18.335 4.062-35.36 1.548-44.527-6.574-4.116-3.675-6.361-8.122-6.922-13.537-1.123-13.73 8.98-28.04 26.753-38.097l.187-.193-.187-.58h-.187C13.657 19.145-1.123 35.196 0 50.666c.374 6.382 3.18 11.797 7.858 16.051 9.728 8.703 26.94 11.41 46.023 7.349 15.341-3.481 27.69-10.443 36.67-19.339l.187-.193-.187-.387Z"/><path d="M104.395 16.824c-3.742-8.315-11.6-14.117-22.45-16.05-17.587-3.095-38.54 4.64-49.205 17.21l-.187.194.375.387.187-.194C40.224 12.377 50.514 7.735 60.99 6.188c15.341-2.514 28.25 1.547 34.611 10.636 5.987 8.896 4.303 25.914-3.555 35.97l-.374.193.374.387.188-.193c12.16-11.797 17.96-23.013 12.16-36.357Z"/><path d="M39.663 40.804h-11.6l-1.122 6.962H39.85l-.936 5.608H19.27l5.426-29.975h18.708l-.935 5.802h-12.16l-1.123 5.995h11.6l-1.123 5.608Zm11.786-11.603h-7.11l1.123-5.608h24.696c-1.497.387-2.806 1.16-4.116 2.514-1.497 1.547-1.684 3.094-1.684 3.094h-6.36l-4.49 24.366h-6.362l4.303-24.366Z"/><path d="M64.733 46.026c2.057 1.16 4.677 2.127 7.857 2.127 2.432 0 4.677-.967 4.677-3.48 0-1.548-1.31-2.708-4.303-4.062-3.367-1.547-6.922-3.868-6.922-8.122 0-6.188 5.613-9.863 11.974-9.863 3.929 0 6.36.967 7.67 1.74l-2.058 5.609c-.935-.58-3.367-1.547-6.174-1.547-3.18 0-4.677 1.547-4.677 2.9 0 1.935 2.245 2.901 4.677 4.062 3.93 1.74 6.549 4.254 6.549 8.122 0 6.768-5.8 10.25-12.535 10.25-4.303 0-7.67-1.161-9.355-2.515l2.62-5.221Zm38.166 14.504c-.749.773-1.684 1.16-2.807 1.16-1.122 0-2.058-.387-2.806-1.16-.749-.774-1.123-1.74-1.123-2.901 0-1.16.374-2.127 1.123-2.9.748-.774 1.684-1.161 2.806-1.161 1.123 0 2.058.387 2.807 1.16.748.774 1.122 1.74 1.122 2.9 0 1.161-.374 2.128-1.122 2.902Zm-5.239-5.415c-.748.773-.935 1.547-.935 2.514 0 .967.374 1.934.935 2.514.748.773 1.497.967 2.432.967.936 0 1.684-.387 2.432-.967.749-.58.936-1.547.936-2.514 0-.967-.374-1.74-.936-2.514-.748-.774-1.496-.967-2.432-.967-.935-.193-1.684.193-2.432.967Zm2.432.193c.561 0 .936 0 1.123.194.374.193.748.58.748 1.16 0 .387-.187.773-.374.967-.187 0-.374.193-.561.193.374 0 .561.194.748.387.187.193.187.387.187.774v.967h-.748v-.58c0-.58-.187-.968-.374-.968-.188 0-.375-.193-.936-.193h-.748v1.74h-.749v-4.447h1.684v-.194Zm.749.774c-.188-.194-.562-.194-.936-.194h-.561v1.74h1.497c.374-.193.374-.386.374-.773-.187-.58-.187-.773-.374-.773Zm80.822-17.985c-1.497.58-4.116 1.354-6.923 1.354-3.18 0-5.612-.967-7.483-2.708-1.871-1.934-2.619-4.447-2.619-7.155 0-4.06 1.683-8.122 4.49-10.636 2.432-2.127 5.987-3.48 9.728-3.48 2.994 0 4.865.58 5.8.966l-1.31 3.288c-1.122-.58-2.806-.967-4.864-.967-2.432 0-4.677.773-6.361 2.32-2.058 1.74-3.367 4.835-3.367 8.122 0 4.255 2.245 6.575 6.548 6.575 1.309 0 2.245-.193 2.993-.58l1.123-5.801h-3.929l.561-3.288h7.858l-2.245 11.99Zm8.044-22.433h3.929l-3.741 19.92h8.98l-.749 3.48h-12.722l4.303-23.4Zm31.431 9.283c0 4.254-1.496 8.509-4.116 11.216-2.058 2.128-4.864 3.288-8.044 3.288-5.987 0-8.981-4.448-8.981-9.67 0-4.254 1.497-8.508 4.303-11.216 2.058-2.127 4.865-3.287 7.858-3.287 6.174 0 8.98 4.254 8.98 9.669Zm-13.844-4.255c-2.058 2.128-3.181 5.802-3.181 8.896 0 3.481 1.497 6.575 5.426 6.575 1.684 0 3.18-.773 4.49-1.934 1.871-1.933 2.993-5.994 2.993-8.895 0-3.094-1.122-6.382-5.238-6.382-1.684-.387-3.181.387-4.49 1.74Zm19.083-4.834c1.497-.387 3.367-.58 5.425-.58 2.432 0 4.116.386 5.426 1.353 1.31.774 2.245 2.128 2.245 4.061 0 3.095-2.245 5.029-4.677 5.609v.193c2.058.58 3.554 2.514 3.554 5.221 0 2.514-1.309 4.255-2.993 5.609-1.871 1.353-4.49 1.933-8.045 1.933-2.245 0-4.116-.193-5.238-.386l4.303-23.013Zm.187 20.112h2.058c2.993 0 5.612-1.16 5.612-4.448 0-2.514-2.057-3.48-4.49-3.48h-1.87l-1.31 7.928Zm2.058-10.83h1.871c2.993 0 5.051-1.353 5.051-3.867 0-1.934-1.497-2.708-3.555-2.708-.935 0-1.683 0-2.058.194l-1.309 6.381Zm17.212 7.156-3.181 6.768h-4.115l11.412-23.4h4.864l2.807 23.4h-4.116l-.562-6.768h-7.109Zm6.922-3.095-.561-5.801c-.187-1.16-.187-3.094-.374-4.448-.561 1.354-1.123 3.094-1.871 4.448l-2.806 5.801h5.612Zm11.787-13.537h3.742l-3.555 19.92h8.98l-.748 3.48H260.24l4.303-23.4Zm-115.995-3.48h-1.871l-8.419 52.6h1.871l8.419-52.6Zm17.961 43.704-1.871 3.675h-1.497l5.8-11.797h1.683l1.497 11.797h-1.497l-.374-3.675h-3.741Zm3.741-1.16-.374-3.48c0-.58-.187-1.548-.187-2.128-.374.774-.561 1.354-.935 2.127l-1.684 3.481h3.18Zm5.987 3.481c.374.193 1.123.58 1.684.58.935 0 1.497-.58 1.497-1.354 0-.58-.375-.966-1.123-1.547-.935-.58-1.497-1.353-1.497-2.127 0-1.547 1.31-2.707 2.994-2.707.748 0 1.497.193 1.684.387l-.375 1.16c-.374-.194-.748-.387-1.496-.387-.749 0-1.497.58-1.497 1.354 0 .58.374.967 1.123 1.354.935.58 1.496 1.353 1.496 2.127 0 1.74-1.496 2.707-3.18 2.707-.936 0-1.684-.193-2.058-.58l.748-.967Zm14.032-6.962-1.123 5.995c-.187.967-.374 1.74-.374 2.514h-1.31l.188-1.547c-.749 1.16-1.871 1.74-2.807 1.74-1.122 0-2.058-.58-2.058-2.514 0-.386 0-.773.187-1.353l.936-4.835h1.496l-.935 4.641c-.187.387-.187.967-.187 1.16 0 .968.374 1.548 1.31 1.548.935 0 2.245-1.16 2.619-3.094l.748-4.255h1.31Zm4.116-4.06-1.123 5.414c.749-1.16 1.684-1.74 2.806-1.74 1.684 0 2.433 1.547 2.433 3.094 0 2.514-1.871 5.801-5.052 5.801-1.496 0-2.432-.58-2.432-2.127 0-.387 0-.967.187-1.354l1.684-9.089h1.497Zm-1.684 9.088c0 .194-.187.58-.187.967 0 .774.374 1.16 1.309 1.16 2.058 0 3.368-2.514 3.368-4.447 0-.967-.374-1.934-1.497-1.934-1.309 0-2.432 1.353-2.806 3.287l-.187.967Zm6.735 1.934c.374.193 1.123.58 1.684.58.935 0 1.497-.58 1.497-1.354 0-.58-.375-.966-1.123-1.547-.935-.58-1.497-1.353-1.497-2.127 0-1.547 1.31-2.707 2.994-2.707.748 0 1.496.193 1.684.387l-.375 1.16c-.374-.194-.748-.387-1.496-.387-.749 0-1.497.58-1.497 1.354 0 .58.374.967 1.122 1.354.936.58 1.497 1.353 1.497 2.127 0 1.74-1.496 2.707-3.18 2.707-.936 0-1.684-.193-2.058-.58l.748-.967Zm5.987 1.354 1.497-8.51h1.496l-1.496 8.51h-1.497Zm1.871-10.83c0-.58.374-.967.935-.967s.749.387.749.967-.375.967-.936.967-.748-.387-.748-.967Zm10.477-1.547-1.684 9.67c-.187.966-.374 1.933-.374 2.707h-1.31l.187-1.74c-.748 1.16-1.684 1.933-2.993 1.933-1.497 0-2.432-1.354-2.432-3.094 0-2.9 2.245-5.802 5.051-5.802.561 0 1.123.194 1.497.194l.748-4.061 1.31.193Zm-2.432 5.221c-.375-.193-.749-.386-1.31-.386-2.058 0-3.368 2.127-3.368 4.448 0 .966.375 2.127 1.497 2.127 1.123 0 2.432-1.354 2.806-3.094l.375-3.095Zm2.245 7.156 1.496-8.51h1.497l-1.497 8.51h-1.496Zm1.871-10.83c0-.58.374-.967.935-.967s.748.387.748.967-.374.967-.935.967c-.374 0-.748-.387-.748-.967Zm7.109 10.83c0-.58 0-1.354.187-2.128-.935 1.741-2.058 2.321-3.181 2.321-1.496 0-2.245-1.16-2.245-2.707 0-2.901 2.058-5.995 5.613-5.995.748 0 1.684.193 2.245.387l-.748 4.447c-.187 1.547-.374 2.901-.374 3.868l-1.497-.193Zm.935-7.349c-.187 0-.561-.193-.935-.193-2.058 0-3.742 2.32-3.929 4.641 0 .967.374 1.934 1.497 1.934 1.122 0 2.619-1.547 2.993-3.868l.374-2.514Zm2.245 7.349.936-5.415c.187-1.16.374-2.127.374-2.9h1.31c0 .58-.187 1.16-.187 1.933.561-1.16 1.496-1.934 2.432-1.934h.374l-.187 1.354h-.374c-1.31 0-2.245 1.547-2.62 3.48l-.748 3.675-1.31-.193Zm7.297-8.316.748 4.641c.187.967.374 1.547.374 2.128a9.43 9.43 0 0 1 .936-2.128l2.058-4.64h1.496l-2.993 6.38c-.935 1.935-1.684 3.288-2.806 4.449a6.004 6.004 0 0 1-2.432 1.547l-.375-1.16c.375-.194.936-.387 1.497-.774s1.123-1.16 1.497-1.934v-.387l-1.684-7.928 1.684-.194Zm15.902 3.288c0 2.514-1.683 5.221-4.49 5.221-2.058 0-3.18-1.547-3.18-3.48 0-2.708 1.871-5.416 4.49-5.416 2.245.194 3.18 1.934 3.18 3.675Zm-6.174 1.74c0 1.354.749 2.32 1.871 2.32 1.684 0 2.994-2.126 2.994-4.06 0-.967-.374-2.32-1.871-2.32-1.871 0-2.994 2.126-2.994 4.06Zm7.11 3.288 1.309-7.349h-1.122l.187-1.16h1.122l.188-.387c.187-1.16.561-2.32 1.309-2.9.561-.388 1.31-.774 1.871-.774.561 0 .935 0 1.123.193l-.375 1.16c-.187 0-.561-.193-.748-.193-1.122 0-1.684 1.16-1.871 2.514v.387h1.871l-.187 1.16h-1.871l-1.31 7.349h-1.496Zm13.844-5.415h-4.116l-.935 4.254h4.677l-.187 1.16h-5.987l2.058-11.602h5.8l-.187 1.16h-4.49l-.562 3.674h4.116l-.187 1.354Zm4.865-5.028h-3.181l.187-1.16h8.045l-.187 1.16h-3.368l-1.871 10.443h-1.496l1.871-10.443Zm4.303 8.702c.561.387 1.496.774 2.432.774 1.309 0 2.432-.774 2.432-2.127 0-.967-.561-1.547-1.684-2.128-1.497-.773-2.245-1.74-2.245-3.094 0-2.127 1.684-3.48 3.929-3.48 1.122 0 1.871.386 2.245.58l-.561 1.16c-.374-.194-1.123-.58-2.058-.58-1.497 0-2.245.967-2.245 1.933 0 .967.561 1.547 1.683 2.128 1.497.773 2.246 1.74 2.246 3.094 0 1.934-1.497 3.674-4.116 3.674-1.123 0-2.245-.387-2.807-.773l.749-1.16Z"/></g></svg>