<svg xmlns="http://www.w3.org/2000/svg" width="16" height="16" viewBox="0 0 16 16"><path d="M1138.9,15.184a5.569,5.569,0,0,1-1.53.4,2.564,2.564,0,0,0,1.17-1.4,5.523,5.523,0,0,1-1.69.613,2.745,2.745,0,0,0-1.95-.8,2.6,2.6,0,0,0-2.67,2.524,2.717,2.717,0,0,0,.07.575,7.707,7.707,0,0,1-5.49-2.638,2.413,2.413,0,0,0-.37,1.269,2.484,2.484,0,0,0,1.19,2.1,2.768,2.768,0,0,1-1.21-.316v.032a2.566,2.566,0,0,0,2.14,2.475,2.8,2.8,0,0,1-1.2.043,2.651,2.651,0,0,0,2.49,1.753,5.532,5.532,0,0,1-3.31,1.081,5.753,5.753,0,0,1-.64-.035A7.856,7.856,0,0,0,1129.99,24a7.335,7.335,0,0,0,7.59-7.183c0-.109-.01-.218-.01-.327A5.324,5.324,0,0,0,1138.9,15.184Z" transform="translate(-1123.9 -11)" fill="#fff"/><rect width="16" height="16" fill="none"/></svg>